<svg xmlns="http://www.w3.org/2000/svg" version="1.1" xmlns:xlink="http://www.w3.org/1999/xlink" width="200" height="200"><svg xmlns="http://www.w3.org/2000/svg" version="1.1" xmlns:xlink="http://www.w3.org/1999/xlink" viewBox="0 0 200 200"><rect width="200" height="200" fill="url('#gradient')"></rect><defs><linearGradient id="SvgjsLinearGradient1001" gradientTransform="rotate(46 0.5 0.5)"><stop offset="0%" stop-color="#ffffff"></stop><stop offset="100%" stop-color="#ffffff"></stop></linearGradient></defs><g><g fill="#006045" transform="matrix(6.017629774730656,0,0,6.017629774730656,7.8975595229694875,142.7847233682608)" stroke="#006045" stroke-width="0"><path d="M12.24-14.22L12.24-11.57L7.97-11.57L7.97 0L4.54 0L4.54-11.57L0.35-11.57L0.35-14.22L12.24-14.22ZM18.36 0L13.68 0L13.68-14.22L18.26-14.22Q20.15-14.22 21.65-13.36Q23.15-12.51 24.00-10.95Q24.84-9.39 24.85-7.46L24.85-7.46L24.85-6.81Q24.85-4.85 24.03-3.31Q23.20-1.76 21.70-0.88Q20.21-0.01 18.36 0L18.36 0ZM18.26-11.57L17.11-11.57L17.11-2.64L18.30-2.64Q19.78-2.64 20.57-3.69Q21.36-4.74 21.36-6.81L21.36-6.81L21.36-7.42Q21.36-9.48 20.57-10.53Q19.78-11.57 18.26-11.57L18.26-11.57ZM30.26-14.22L30.26 0L26.85 0L26.85-14.22L30.26-14.22Z"></path></g></g></svg><style>@media (prefers-color-scheme: light) { :root { filter: none; } }
@media (prefers-color-scheme: dark) { :root { filter: none; } }
</style></svg>